{
	"asset":{
		"generator":"Khronos glTF Blender I/O v4.0.44",
		"version":"2.0"
	},
	"scene":0,
	"scenes":[
		{
			"name":"Scene",
			"nodes":[
				0
			]
		}
	],
	"nodes":[
		{
			"mesh":0,
			"name":"Cylinder.002",
			"rotation":[
				0,
				0.6946583986282349,
				0,
				0.7193397879600525
			],
			"scale":[
				0.29377955198287964,
				0.27022993564605713,
				0.29377955198287964
			],
			"translation":[
				0.5971810221672058,
				4.270479202270508,
				0.48071160912513733
			]
		}
	],
	"materials":[
		{
			"doubleSided":true,
			"name":"ring",
			"pbrMetallicRoughness":{
				"baseColorFactor":[
					0.07037193328142166,
					0.07035703957080841,
					0.07035503536462784,
					1
				],
				"metallicFactor":0.9684684872627258,
				"roughnessFactor":0.2432432472705841
			}
		},
		{
			"doubleSided":true,
			"name":"Ring",
			"pbrMetallicRoughness":{
				"baseColorFactor":[
					0.07037193328142166,
					0.07035703957080841,
					0.07035503536462784,
					1
				],
				"metallicFactor":0.977477490901947,
				"roughnessFactor":0.27477478981018066
			}
		},
		{
			"alphaMode":"BLEND",
			"doubleSided":true,
			"name":"Material.002",
			"pbrMetallicRoughness":{
				"baseColorFactor":[
					0.799238383769989,
					0.02731957472860813,
					0.054476361721754074,
					1
				],
				"metallicFactor":0,
				"roughnessFactor":0.29230770468711853
			}
		},
		{
			"doubleSided":true,
			"name":"Material.003",
			"pbrMetallicRoughness":{
				"baseColorFactor":[
					0.799238383769989,
					0.02731957472860813,
					0.054476361721754074,
					1
				],
				"metallicFactor":0,
				"roughnessFactor":0.29230770468711853
			}
		}
	],
	"meshes":[
		{
			"name":"Cylinder.001",
			"primitives":[
				{
					"attributes":{
						"POSITION":0,
						"NORMAL":1,
						"TEXCOORD_0":2
					},
					"indices":3,
					"material":0
				},
				{
					"attributes":{
						"POSITION":4,
						"NORMAL":5,
						"TEXCOORD_0":6
					},
					"indices":7,
					"material":1
				},
				{
					"attributes":{
						"POSITION":8,
						"NORMAL":9,
						"TEXCOORD_0":10
					},
					"indices":11,
					"material":2
				},
				{
					"attributes":{
						"POSITION":12,
						"NORMAL":13,
						"TEXCOORD_0":14
					},
					"indices":11,
					"material":3
				}
			]
		}
	],
	"accessors":[
		{
			"bufferView":0,
			"componentType":5126,
			"count":45734,
			"max":[
				1.0788774490356445,
				0.6599469780921936,
				1.0715453624725342
			],
			"min":[
				-1.0787458419799805,
				-0.6600527167320251,
				-1.0860681533813477
			],
			"type":"VEC3"
		},
		{
			"bufferView":1,
			"componentType":5126,
			"count":45734,
			"type":"VEC3"
		},
		{
			"bufferView":2,
			"componentType":5126,
			"count":45734,
			"type":"VEC2"
		},
		{
			"bufferView":3,
			"componentType":5123,
			"count":110280,
			"type":"SCALAR"
		},
		{
			"bufferView":4,
			"componentType":5126,
			"count":55339,
			"max":[
				1.211613655090332,
				0.5146833062171936,
				1.1948857307434082
			],
			"min":[
				-1.2103071212768555,
				-0.5118879675865173,
				-1.1993000507354736
			],
			"type":"VEC3"
		},
		{
			"bufferView":5,
			"componentType":5126,
			"count":55339,
			"type":"VEC3"
		},
		{
			"bufferView":6,
			"componentType":5126,
			"count":55339,
			"type":"VEC2"
		},
		{
			"bufferView":7,
			"componentType":5123,
			"count":289536,
			"type":"SCALAR"
		},
		{
			"bufferView":8,
			"componentType":5126,
			"count":199,
			"max":[
				0.15691092610359192,
				0.15284588932991028,
				1.2008388042449951
			],
			"min":[
				-0.08683296293020248,
				-0.10944221168756485,
				1.12326979637146
			],
			"type":"VEC3"
		},
		{
			"bufferView":9,
			"componentType":5126,
			"count":199,
			"type":"VEC3"
		},
		{
			"bufferView":10,
			"componentType":5126,
			"count":199,
			"type":"VEC2"
		},
		{
			"bufferView":11,
			"componentType":5123,
			"count":264,
			"type":"SCALAR"
		},
		{
			"bufferView":12,
			"componentType":5126,
			"count":199,
			"max":[
				0.08249381929636002,
				-0.2097773253917694,
				1.179764747619629
			],
			"min":[
				-0.028040852397680283,
				-0.32872626185417175,
				1.1445868015289307
			],
			"type":"VEC3"
		},
		{
			"bufferView":13,
			"componentType":5126,
			"count":199,
			"type":"VEC3"
		},
		{
			"bufferView":14,
			"componentType":5126,
			"count":199,
			"type":"VEC2"
		}
	],
	"bufferViews":[
		{
			"buffer":0,
			"byteLength":548808,
			"byteOffset":0,
			"target":34962
		},
		{
			"buffer":0,
			"byteLength":548808,
			"byteOffset":548808,
			"target":34962
		},
		{
			"buffer":0,
			"byteLength":365872,
			"byteOffset":1097616,
			"target":34962
		},
		{
			"buffer":0,
			"byteLength":220560,
			"byteOffset":1463488,
			"target":34963
		},
		{
			"buffer":0,
			"byteLength":664068,
			"byteOffset":1684048,
			"target":34962
		},
		{
			"buffer":0,
			"byteLength":664068,
			"byteOffset":2348116,
			"target":34962
		},
		{
			"buffer":0,
			"byteLength":442712,
			"byteOffset":3012184,
			"target":34962
		},
		{
			"buffer":0,
			"byteLength":579072,
			"byteOffset":3454896,
			"target":34963
		},
		{
			"buffer":0,
			"byteLength":2388,
			"byteOffset":4033968,
			"target":34962
		},
		{
			"buffer":0,
			"byteLength":2388,
			"byteOffset":4036356,
			"target":34962
		},
		{
			"buffer":0,
			"byteLength":1592,
			"byteOffset":4038744,
			"target":34962
		},
		{
			"buffer":0,
			"byteLength":528,
			"byteOffset":4040336,
			"target":34963
		},
		{
			"buffer":0,
			"byteLength":2388,
			"byteOffset":4040864,
			"target":34962
		},
		{
			"buffer":0,
			"byteLength":2388,
			"byteOffset":4043252,
			"target":34962
		},
		{
			"buffer":0,
			"byteLength":1592,
			"byteOffset":4045640,
			"target":34962
		}
	],
	"buffers":[
		{
			"byteLength":4047232,
			"uri":"Ring.bin"
		}
	]
}
